Coordinates
version=1
nRows=6
nColumns=36
inDegrees=yes

Units are S.I. units (second, meters, Newtons, ...)
If the header above contains a line with 'inDegrees', this indicates whether rotational values are in degrees (yes) or radians (no).

endheader
time	pelvis_tilt	pelvis_list	pelvis_rotation	pelvis_tx	pelvis_ty	pelvis_tz	hip_flexion_r	hip_adduction_r	hip_rotation_r	knee_angle_r	knee_angle_r_beta	ankle_angle_r	subtalar_angle_r	mtp_angle_r	hip_flexion_l	hip_adduction_l	hip_rotation_l	knee_angle_l	knee_angle_l_beta	ankle_angle_l	subtalar_angle_l	mtp_angle_l	lumbar_extension	lumbar_bending	lumbar_rotation	arm_flex_r	arm_add_r	arm_rot_r	elbow_flex_r	pro_sup_r	arm_flex_l	arm_add_l	arm_rot_l	elbow_flex_l	pro_sup_l
      2.33333330	    -14.51445437	     -3.04349987	     16.97495750	     -0.15555275	      0.93137428	      0.32876601	     29.99996810	     -6.96320946	    -11.06689379	     30.17440043	      0.52664264	     16.22151568	     -3.54857492	     -7.49999987	     27.40643084	     -4.72824366	    -14.17593418	     31.09697477	      0.54274460	     19.31123799	     -2.88232358	     -7.49999987	    -17.23817449	     -3.94099350	     -6.73861026	     12.61579293	    -43.65195027	     66.22064778	     83.71795345	     70.27358423	    -17.67487979	    -49.46626568	     40.93925350	     90.98649896	     86.38595537
      2.35000000	    -15.76953764	     -3.49901031	     17.62096691	     -0.15711401	      0.92447047	      0.32889953	     34.02806219	     -8.08185569	    -11.65568635	     35.12648793	      0.61307287	     19.16970678	     -2.68076697	     -7.49999987	     31.25756973	     -4.83317805	    -13.19510000	     35.49089719	      0.61943301	     20.93421696	     -3.43551220	     -7.49999987	    -19.28167590	     -3.75329622	     -7.34801448	     12.21929740	    -43.99054832	     65.26832579	     85.16338698	     69.93833795	    -17.43487798	    -49.30138999	     41.32385499	     91.02653829	     86.98757848
      2.36666670	    -16.80901936	     -3.96825345	     18.26339089	     -0.14907747	      0.91284979	      0.32315881	     37.19887065	     -9.14494988	    -12.41865863	     39.18460181	      0.68390032	     22.34184767	     -1.26398328	     -7.49999987	     34.43435503	     -4.80482588	    -12.35122750	     38.89642852	      0.67887075	     22.55973338	     -3.40651131	     -7.49999987	    -21.13686315	     -3.46882356	     -8.12048927	     12.06084456	    -44.25041170	     64.53090612	     86.37673301	     69.17221612	    -16.32336290	    -49.69298959	     42.09553257	     91.50372198	     86.59344442
      2.38333330	    -18.16232633	     -4.45036334	     19.09102205	     -0.16765569	      0.90400034	      0.32366201	     40.92784922	    -10.45137663	    -12.70349078	     43.59064068	      0.76080020	     25.17846698	      0.13807612	     -7.49999987	     38.10877729	     -4.67669597	    -11.89009021	     42.53864474	      0.74243941	     24.24101574	     -2.77640312	     -7.49999987	    -23.36526769	     -3.12445575	     -4.25771477	      2.01541201	    -45.45502716	     52.44322319	     90.08646881	     65.49844308	     -6.00968028	    -51.05823736	     52.90689887	     90.91451211	     90.86725106
      2.40000000	    -19.25857438	     -4.86249072	     19.68167450	     -0.14969035	      0.89254681	      0.32080447	     44.15821114	    -11.76862965	    -13.09768765	     47.74478689	      0.83330373	     27.95063510	      1.33401465	     -7.49999987	     40.95854953	     -4.54938065	    -11.49224790	     45.43625608	      0.79301227	     26.42232479	     -1.86452527	     -7.49999987	    -25.21775063	     -2.92337290	     -5.23770993	      2.42017032	    -45.74614621	     52.44273782	     91.33938608	     65.34735823	     -5.21443160	    -51.51148221	     53.29866786	     91.75510706	     90.62508710
      2.41666670	    -20.19727690	     -5.23159455	     20.34672697	     -0.16995299	      0.88681231	      0.32193090	     47.28568210	    -13.09359980	    -13.14552895	     51.79103857	      0.90392415	     30.30261243	      2.28349996	     -7.49999987	     43.89252215	     -4.38870250	    -11.06946504	     48.76924601	      0.85118392	     28.19563756	     -1.25604904	     -7.49999987	    -27.28256057	     -2.75346164	     -5.72250840	      2.60069473	    -46.03271249	     51.99647646	     92.76591764	     65.29100346	     -4.98550416	    -51.30663173	     53.42535887	     92.08758671	     90.58155352
